PathFileType        4      (X/Y/Z)      C:\Users\pc\Desktop\IMUTRC\Sujet_01\Sujet_01_velo_60.trc         
DataRate	CameraRate	NumFrames	NumMarkers	Units	OrigDataRate	OrigDataStartFrame	OrigNumFrames
60.0	60.0	4	64	mm	60.0	343	1370
Frame#	Time	pHipOrigin			pRightASI			pLeftASI			pRightCSI			pLeftCSI			pRightIschialTub			pLeftIschialTub			pSacrum			pL5SpinalProcess			pL3SpinalProcess			pT12SpinalProcess			pIJ			pT4SpinalProcess			pT8SpinalProcess			pPX			pC7SpinalProcess			pTopOfHead			pRightAuricularis			pLeftAuricularis			pBackOfHead			pRightAcromion			pLeftAcromion			pRightArmLatEpicondyle			pRightArmMedEpicondyle			pLeftArmLatEpicondyle			pLeftArmMedEpicondyle			pRightUlnarStyloid			pRightRadialStyloid			pRightOlecranon			pLeftUlnarStyloid			pLeftRadialStyloid			pLeftOlecranon			pRightTopOfHand			pRightPinky			pRightBallHand			pLeftTopOfHand			pLeftPinky			pLeftBallHand			pRightGreaterTrochanter			pRightKneeLatEpicondyle			pRightKneeMedEpicondyle			pRightPatella			pLeftGreaterTrochanter			pLeftKneeLatEpicondyle			pLeftKneeMedEpicondyle			pLeftPatella			pRightTibialTub			pRightLatMalleolus			pRightMedMalleolus			pLeftTibialTub			pLeftLatMalleolus			pLeftMedMalleolus			pRightHeelFoot			pRightFirstMetatarsal			pRightFifthMetatarsal			pRightPivotFoot			pRightHeelCenter			pRightToe			pLeftHeelFoot			pLeftFirstMetatarsal			pLeftFifthMetatarsal			pLeftPivotFoot			pLeftHeelCenter			pLeftToe			
		X1	Y1	Z1	X2	Y2	Z2	X3	Y3	Z3	X4	Y4	Z4	X5	Y5	Z5	X6	Y6	Z6	X7	Y7	Z7	X8	Y8	Z8	X9	Y9	Z9	X10	Y10	Z10	X11	Y11	Z11	X12	Y12	Z12	X13	Y13	Z13	X14	Y14	Z14	X15	Y15	Z15	X16	Y16	Z16	X17	Y17	Z17	X18	Y18	Z18	X19	Y19	Z19	X20	Y20	Z20	X21	Y21	Z21	X22	Y22	Z22	X23	Y23	Z23	X24	Y24	Z24	X25	Y25	Z25	X26	Y26	Z26	X27	Y27	Z27	X28	Y28	Z28	X29	Y29	Z29	X30	Y30	Z30	X31	Y31	Z31	X32	Y32	Z32	X33	Y33	Z33	X34	Y34	Z34	X35	Y35	Z35	X36	Y36	Z36	X37	Y37	Z37	X38	Y38	Z38	X39	Y39	Z39	X40	Y40	Z40	X41	Y41	Z41	X42	Y42	Z42	X43	Y43	Z43	X44	Y44	Z44	X45	Y45	Z45	X46	Y46	Z46	X47	Y47	Z47	X48	Y48	Z48	X49	Y49	Z49	X50	Y50	Z50	X51	Y51	Z51	X52	Y52	Z52	X53	Y53	Z53	X54	Y54	Z54	X55	Y55	Z55	X56	Y56	Z56	X57	Y57	Z57	X58	Y58	Z58	X59	Y59	Z59	X60	Y60	Z60	X61	Y61	Z61	X62	Y62	Z62	X63	Y63	Z63	X64	Y64	Z64	
343	5.7	0.0	1249.99075	7.653985854756496E-14	3.708799999999984	1353.89996	129.8079400000001	58.77502000000001	1356.47726	-113.4012199999999	-47.20860000000001	1400.98284	96.05159000000009	-1.9486899999999874	1403.18298	-103.90920999999992	-44.12841000000001	1184.55246	41.865420000000064	-21.498459999999994	1185.6211	-58.08354999999993	-62.92385	1250.74508	-14.206579999999931	-56.44917	1347.36242	-12.697919999999925	-57.01492	1453.34604	-11.629279999999918	-59.15219	1550.34055	-11.063529999999913	96.42876	1725.34554	38.72237000000012	-37.2137	1727.6714	-2.200129999999899	-53.99759	1646.51786	-8.423369999999906	78.01049	1613.5787	31.55622000000011	-27.53311	1774.62855	2.7030200000001052	50.6031	2008.09426	14.835190000000129	34.38495999999999	1916.25436	82.34789000000012	55.254810000000006	1911.53979	-47.71148999999988	-6.2232400000000005	1916.75725	8.989120000000117	-59.84366000000002	1729.55723	179.5309800000001	39.665280000000024	1744.89531	-165.07294999999988	-107.42943000000002	1448.82005	188.1429400000001	-95.17154000000001	1443.47687	135.9054600000001	-15.840969999999972	1471.70145	-226.8024399999999	-33.94492999999998	1462.58661	-176.8279599999999	10.874949999999979	1267.71755	172.93058000000008	46.26568999999998	1291.29042	161.7413200000001	-120.37879000000001	1438.07082	169.47322000000005	131.44233	1356.72871	-111.07536999999991	134.83682	1389.03925	-81.4049799999999	-27.03021999999997	1454.10038	-219.0705399999999	127.73352999999997	1147.21303	201.9723500000001	57.20349999999997	1186.62687	203.8581800000001	30.990469999999977	1241.81882	174.1878000000001	259.7416	1282.99277	-29.85896999999989	208.69848	1302.03965	-89.51404999999988	152.68934	1339.88196	-95.9887299999999	-24.075760000000017	1230.94387	146.5918200000001	218.44192999999999	1000.11832	233.02568000000008	247.29512999999997	999.92974	172.3019700000001	254.77557999999996	1029.66298	210.52145000000007	40.922500000000014	1233.08114	-142.9458899999999	335.61482	1053.67588	-119.56159999999988	338.88359	1057.69899	-52.55178999999989	354.72456	1089.06662	-86.68529999999988	252.76402999999996	951.08675	213.35019000000008	0.37716999999998335	677.76717	135.96832000000003	27.47024999999999	674.62412	82.34789000000005	384.39494	1026.33135	-92.7828199999999	309.02462	654.38289	-111.32680999999991	319.96243	654.06858	-52.17461999999991	-78.6391	587.68738	39.03667000000003	55.63196999999999	479.56648	110.13245000000003	-1.8229700000000215	486.92121	176.63938000000002	42.305439999999976	468.69153	156.71244000000002	-54.43762000000001	560.97146	62.92385000000003	87.06246999999998	429.21483	199.77222000000003	256.15853	523.00342	-55.50624999999994	432.73504	516.2773	4.023100000000086	439.39831	496.03606	-81.59355999999991	460.77104	504.08226	-35.13928999999992	298.71542	516.84304	-50.728819999999935	534.00409	500.75063	-28.727469999999904	
344	5.717	0.0	1249.99075	7.653985854756496E-14	2.640159999999984	1354.02568	129.6822200000001	60.786580000000015	1356.03723	-112.7726099999999	-47.64863000000001	1401.42287	95.23440000000008	0.18858000000001277	1402.99439	-104.16065999999991	-45.00847000000001	1184.8039	41.36253000000006	-21.12128999999999	1185.6211	-58.27213999999993	-62.73527	1251.05938	-15.023779999999931	-55.7577	1347.67672	-13.515109999999925	-55.7577	1453.66035	-12.195029999999917	-57.32922	1550.65485	-11.314979999999913	98.56603	1724.46549	41.42539000000012	-34.57354	1727.79712	-1.0686399999998986	-51.73459	1646.83217	-8.046209999999906	79.58201	1612.88723	33.2534600000001	-24.70437	1774.56569	4.337410000000106	51.67173	2008.09426	17.53822000000013	36.082209999999996	1916.00292	84.92519000000011	57.580670000000005	1911.66551	-45.07132999999988	-4.148830000000002	1916.25436	11.377840000000118	-59.026470000000025	1728.48859	180.4739000000001	45.071330000000025	1745.46106	-162.74709999999988	-100.76616000000003	1447.75142	193.23468000000008	-87.81680000000001	1441.6539	141.24864000000008	-1.1943599999999726	1470.88426	-225.60808999999992	-20.55553999999998	1461.26653	-176.19934999999992	22.69281999999998	1269.66624	181.35395000000008	57.51779999999998	1294.0563	169.9761100000001	-113.14978000000004	1436.24786	174.69069000000007	147.2833	1358.11165	-110.25816999999991	149.98632	1390.29647	-80.4620599999999	-12.697919999999973	1453.0946	-218.19048999999993	143.07160999999996	1153.56199	213.6645000000001	71.28435999999998	1190.64998	214.1673900000001	43.625529999999976	1244.45898	183.23978000000008	277.59412	1287.95878	-28.601749999999885	226.11097	1305.43414	-88.44540999999988	169.09606	1341.76779	-95.0458099999999	-24.390060000000016	1232.07537	146.65469000000007	226.92816999999997	1012.12477	236.42018000000007	255.71849999999998	1011.99905	175.7593200000001	262.06746	1042.67521	213.41305000000008	40.73392000000001	1231.50962	-142.7572999999999	325.99708	1037.39489	-120.0644899999999	329.76874	1041.48085	-53.054669999999895	347.05552	1071.90557	-87.37676999999988	260.18163	962.96748	216.3675200000001	3.394489999999983	693.92245	138.60848000000001	30.173269999999988	690.65368	84.86233000000004	375.72013	1010.49038	-93.2228499999999	304.62435	637.66186	-110.63533999999991	315.68788	637.66186	-51.54600999999993	-76.56468	604.53412	41.61397000000003	57.14063999999998	495.34459	112.08114000000003	-0.1257200000000219	502.8879	178.77665000000002	43.81410999999998	484.40677	158.72399000000001	-52.551790000000004	577.56676	65.37543000000002	88.44540999999997	444.49005	201.53233000000003	251.00393	506.72242	-55.06622999999994	427.45472	498.8648	4.777440000000083	434.11798	478.68642	-80.77636999999991	455.49072	486.54405	-34.322099999999914	293.49795	500.3106	-50.225929999999934	528.66091	482.77239	-27.721699999999906	
345	5.733	0.0	1249.99075	7.653985854756496E-14	1.5086599999999841	1354.15141	129.61936000000009	62.923850000000016	1355.53435	-112.0811399999999	-48.025790000000015	1401.80003	94.41720000000008	2.4515800000000127	1402.86867	-104.28637999999991	-45.95138000000001	1185.11821	40.85964000000006	-20.681269999999994	1185.68396	-58.52357999999993	-62.48382	1251.37369	-15.90382999999993	-55.00336	1347.99103	-14.332309999999925	-54.37475	1454.03752	-12.760779999999919	-55.44339	1551.03202	-11.440699999999913	100.89189	1723.52257	44.31700000000012	-31.68194	1727.9857	0.2514400000001019	-49.22015	1647.14647	-7.5433199999999045	81.34212	1612.1329	35.13929000000011	-21.68704	1774.43997	6.160380000000106	53.1804	2008.0314	20.49268000000013	38.15661999999998	1915.75147	87.69108000000011	60.22083000000001	1911.72837	-42.17971999999988	-1.8229700000000018	1915.68861	14.080860000000117	-57.95783000000002	1727.35709	181.5425300000001	50.79168000000002	1746.0268	-160.1069399999999	-92.78282000000003	1446.74564	198.82931000000008	-79.20484000000002	1440.01951	147.03185000000008	14.709470000000026	1470.38137	-223.91083999999992	-5.846069999999979	1460.13503	-175.1307099999999	35.64217999999998	1271.86637	190.59452000000007	69.77569999999997	1296.94791	178.90237000000008	-104.66355000000003	1434.55061	180.53676000000007	164.13004	1359.36887	-109.0638099999999	166.26731	1391.42797	-79.0791199999999	2.8916100000000267	1452.27741	-216.8704099999999	159.54118999999997	1160.4767	226.5510000000001	86.55957999999997	1195.23883	225.6709500000001	57.39207999999998	1247.35059	193.29754000000008	296.51528	1292.9248	-27.155949999999887	244.46638	1308.76577	-86.93674999999989	186.50855	1343.5279	-93.60000999999988	-24.70437000000002	1233.144	146.65469000000007	235.03722999999997	1024.69697	239.6260900000001	263.82757	1024.75983	178.83951000000008	268.98217	1056.25318	216.0532200000001	40.48248000000002	1229.93809	-142.50585999999993	315.31072	1021.23961	-120.3787899999999	319.58526	1025.38844	-53.431839999999895	338.31784	1054.68166	-87.94251999999989	267.66209	975.60254	219.07054000000008	7.606179999999982	709.51197	142.00297000000006	34.007789999999986	706.18034	88.00538000000005	365.91381	994.64941	-93.6000099999999	298.84114	621.06656	-110.38389999999991	309.96753	621.25515	-51.23170999999993	-72.85589	620.37509	44.94561000000003	60.84943999999999	510.87125	115.03561000000005	3.7716599999999776	518.41457	181.79398000000003	47.648629999999976	499.87058	161.61560000000003	-48.717270000000006	593.34487	68.58134000000004	92.27992999999996	459.82813	204.29821000000004	244.02636	490.75573	-55.19194999999994	420.28857	481.138	4.966020000000081	426.95183	461.08535	-80.65064999999991	448.26171	468.62867	-34.13351999999991	286.45752	483.90389	-50.288789999999935	521.4319	464.16554	-27.344529999999907	
346	5.75	0.0	1249.99075	7.653985854756496E-14	0.4400299999999841	1354.33999	129.49364000000008	64.99826000000002	1355.03146	-111.3268099999999	-48.340100000000014	1402.1772	93.60001000000008	4.777440000000013	1402.74295	-104.41209999999991	-46.89430000000001	1185.49537	40.29389000000006	-20.30409999999999	1185.74682	-58.712159999999926	-62.29524	1251.75086	-16.72101999999993	-54.24903	1348.36819	-15.149499999999925	-52.92895	1454.41468	-13.200809999999919	-53.30612	1551.40919	-11.440699999999913	103.53205	1722.45393	47.20860000000012	-28.53889	1728.11142	1.7601100000001024	-46.57999	1647.46078	-6.851849999999904	83.29081	1611.18999	36.96226000000011	-18.35541	1774.31425	8.171930000000106	55.06623	2007.90568	23.572870000000133	40.67105999999998	1915.43717	90.64554000000011	63.175290000000004	1911.66551	-39.16239999999988	0.9429099999999979	1915.06	16.846740000000118	-56.38631000000002	1726.22559	182.8626100000001	56.70061000000002	1746.52969	-157.27818999999988	-83.60511000000002	1445.99131	204.73824000000008	-69.71284000000001	1438.63657	153.19223000000008	31.68194000000003	1470.12993	-221.64783999999992	10.057760000000021	1459.12926	-173.49632999999992	49.220149999999975	1274.31795	200.0865300000001	82.78791999999997	1300.02809	187.9543500000001	-95.10867000000003	1433.16767	186.63427000000007	181.54253	1359.99748	-107.61800999999988	183.23978	1391.868	-77.38187999999988	19.424050000000026	1451.83738	-215.0474399999999	176.51364999999998	1167.76858	239.56323000000012	102.46340999999997	1200.14198	237.36309000000008	71.85010999999997	1250.43077	203.5438800000001	315.87647	1297.01077	-25.64727999999988	263.26182	1311.28021	-85.30235999999988	204.48679	1344.59654	-91.96562999999989	-25.018670000000018	1234.40122	146.65469000000007	242.83199999999997	1037.96064	242.83200000000008	271.43375	1038.08636	181.9825600000001	275.45685	1070.39691	218.63052000000008	40.16817000000002	1228.61801	-142.31727999999993	303.99574	1006.09011	-120.9445399999999	308.83603	1010.11322	-53.9975899999999	328.82583	1038.40066	-88.6968499999999	274.95396	988.8662	221.8364300000001	13.075089999999982	724.22144	145.90035000000006	39.03666999999999	720.95267	91.77704000000004	355.60461	979.6885	-94.29147999999991	292.17787	605.47704	-110.69819999999991	303.36713	605.79134	-51.60886999999993	-67.38698	634.83312	48.96871000000003	66.69550999999998	525.7693	118.87013000000005	9.680589999999977	533.1869	185.75422000000003	53.62041999999998	514.76863	165.57584000000003	-43.248360000000005	607.92862	72.60444000000004	98.37744999999997	474.91476	208.19559000000004	235.66584	475.92054	-56.13485999999995	411.61375	463.85123	4.463130000000079	418.27701	443.98716	-81.21639999999991	439.58689	451.15331	-34.63639999999992	277.97129	468.56581	-51.10597999999994	512.63136	445.68441	-27.721699999999906	
